HIERARCHY
ROOT hip
{
	OFFSET 0.000000 0.000000 0.000000 
	CHANNELS 6 Xposition Yposition Zposition Xrotation Zrotation Yrotation
	JOINT abdomen
	{
		OFFSET 0.000000 3.402643 0.000000 
		CHANNELS 3 Xrotation Zrotation Yrotation
		JOINT chest
		{
			OFFSET 0.000000 8.438565 -0.680529 
			CHANNELS 3 Xrotation Zrotation Yrotation
			JOINT neck
			{
				OFFSET 0.000000 10.207942 -0.272212 
				CHANNELS 3 Xrotation Zrotation Yrotation
				JOINT head
				{
					OFFSET 0.000000 3.130431 0.000000 
					CHANNELS 3 Xrotation Zrotation Yrotation
					End Site
					{
						OFFSET 0.000000 3.130435 0.000000 
					}
				}
			}
			JOINT lCollar
			{
				OFFSET 3.470700 6.669187 -0.816635 
				CHANNELS 3 Yrotation Zrotation Xrotation
				JOINT lShldr
				{
					OFFSET 3.198488 0.000000 0.000000 
					CHANNELS 3 Zrotation Yrotation Xrotation
					JOINT lForeArm
					{
						OFFSET 10.139888 0.000000 0.000000 
						CHANNELS 3 Yrotation Zrotation Xrotation
						JOINT lHand
						{
							OFFSET 8.370511 0.000000 0.000000 
							CHANNELS 3 Zrotation Yrotation Xrotation
							End Site
							{
								OFFSET 4.083176 0.000000 0.000000 
							}
						}
					}
				}
			}
			JOINT rCollar
			{
				OFFSET -3.470700 6.669187 -0.816635 
				CHANNELS 3 Yrotation Zrotation Xrotation
				JOINT rShldr
				{
					OFFSET -3.198488 0.000000 0.000000 
					CHANNELS 3 Zrotation Yrotation Xrotation
					JOINT rForeArm
					{
						OFFSET -10.139888 0.000000 0.000000 
						CHANNELS 3 Yrotation Zrotation Xrotation
						JOINT rHand
						{
							OFFSET -8.370511 0.000000 0.000000 
							CHANNELS 3 Zrotation Yrotation Xrotation
							End Site
							{
								OFFSET -4.083176 0.000000 0.000000 
							}
						}
					}
				}
			}
		}
	}
	JOINT lThigh
	{
		OFFSET 5.308129 -1.633274 1.361059 
		CHANNELS 3 Xrotation Zrotation Yrotation
		JOINT lShin
		{
			OFFSET -2.041588 -20.007561 0.000000 
			CHANNELS 3 Xrotation Zrotation Yrotation
			JOINT lFoot
			{
				OFFSET 0.000000 -19.190928 -1.224953 
				CHANNELS 3 Xrotation Yrotation Zrotation
				End Site
				{
					OFFSET 0.000000 -2.449906 4.627600 
				}
			}
		}
	}
	JOINT rThigh
	{
		OFFSET -5.308129 -1.633274 1.361059 
		CHANNELS 3 Xrotation Zrotation Yrotation
		JOINT rShin
		{
			OFFSET 2.041588 -20.007561 0.000000 
			CHANNELS 3 Xrotation Zrotation Yrotation
			JOINT rFoot
			{
				OFFSET 0.000000 -19.190928 -1.224953 
				CHANNELS 3 Xrotation Yrotation Zrotation
				End Site
				{
					OFFSET 0.000000 -2.449906 4.627600 
				}
			}
		}
	}
}
MOTION
Frames: 16
Frame Time: 0.011111
4.081228 53.787071 -97.221397 4.811158 -8.318991 1.986869 33.964478 6.999234 6.476688 -26.446817 -4.853228 1.016431 -15.365647 0.439240 -0.938965 -10.251205 -0.070889 -1.642331 8.861669 -1.932660 3.351237 -69.987770 -1.724303 46.824509 -88.851837 4.837422 34.330448 8.524705 12.647240 -19.485731 -6.806992 -0.756156 2.905732 69.267235 35.160007 56.790314 91.069519 -6.566544 35.819305 -8.534408 -12.637552 43.607277 -38.063164 12.499108 -8.796053 28.673923 -5.395921 -4.703093 0.019727 -1.794592 -3.144398 31.624569 7.724480 10.905855 29.485165 5.351447 4.793963 25.479395 -10.943083 5.390508 
4.053452 53.704376 -95.589592 4.655697 -8.441504 1.773818 34.114761 6.912699 6.555826 -26.093185 -4.767692 1.014916 -15.248169 0.331381 -0.858239 -11.014566 0.171507 -1.550043 8.861669 -1.932660 3.351237 -70.435196 -2.793464 46.682781 -88.844513 4.829748 34.320511 8.524705 12.647240 -19.827526 -6.806992 -0.756156 2.905732 68.844772 34.437031 57.366959 90.400528 -6.104664 35.407841 -8.534408 -12.637552 43.958843 -36.616779 12.704149 -7.729264 26.870251 -5.478755 -4.463323 -0.745989 -1.596666 -3.171826 29.550364 8.115493 9.815784 35.455143 4.966777 5.529101 27.073088 -12.200661 6.080904 
4.034105 53.592655 -93.949669 4.544229 -8.117225 1.569968 34.013538 6.399816 6.362890 -25.475510 -4.734557 1.008387 -14.974506 0.213176 -0.785142 -11.906225 0.643834 -1.491947 8.861669 -1.932660 3.351237 -70.641739 -4.067280 46.686920 -88.874397 4.858698 34.339897 8.524705 12.647240 -19.915419 -6.806992 -0.756156 2.905732 68.640129 33.893589 57.807430 89.637436 -5.522118 34.902576 -8.534408 -12.637552 44.388527 -35.138287 12.371070 -6.185218 25.573515 -5.537595 -4.281879 -0.970685 -1.029635 -3.155937 27.296293 8.035916 8.545843 41.502644 4.524157 6.270986 28.075155 -13.304014 6.714529 
4.015069 53.451595 -92.371544 4.243517 -7.734154 1.973204 35.248230 5.478402 6.335813 -24.204140 -5.144956 1.061256 -19.197203 1.182726 -1.254801 -10.114284 0.393597 -1.941285 8.861669 -1.932660 3.351237 -69.703468 -7.919736 47.691051 -88.804565 4.794706 34.291283 8.524705 12.647240 -19.759165 -6.806992 -0.756156 2.905732 69.468903 35.026852 56.921322 88.809578 -4.803081 34.292324 -8.534408 -12.637552 43.978371 -33.486874 11.725871 -5.404958 24.483480 -5.592282 -4.127794 -0.839752 -0.000074 -3.121076 25.318359 8.007249 6.846344 47.061726 4.043966 6.893429 28.327053 -14.423266 7.385078 
4.001026 53.307114 -90.792168 3.891738 -7.031400 2.370567 35.325016 5.035575 5.438525 -25.112383 -4.649118 0.911027 -16.322943 0.580099 -0.965918 -11.888581 1.052419 -1.748233 8.861669 -1.932660 3.351237 -70.050880 -7.752523 47.888794 -88.882500 4.865903 34.349815 8.524705 12.647240 -19.515026 -6.806992 -0.756156 2.905732 68.717705 32.809048 57.399872 88.172127 -4.161357 33.771160 -8.534408 -12.637552 44.046734 -31.526510 10.750140 -4.543891 23.909399 -5.605151 -4.068819 -0.752914 0.550237 -3.095917 23.147070 7.527627 4.855891 52.660942 3.505490 7.464766 28.699751 -15.335062 7.932782 
3.976372 53.126110 -89.158188 3.874482 -6.109982 2.503478 35.270088 3.774816 4.807204 -24.875160 -4.338946 0.893080 -16.392210 0.800566 -1.112801 -11.790553 1.074429 -1.952752 8.861669 -1.932660 3.351237 -69.742599 -9.458514 48.730293 -88.905273 4.887726 34.369019 8.524705 12.647240 -18.870495 -6.806992 -0.756156 2.905732 68.692482 31.801037 56.903847 87.599548 -3.498590 33.201954 -8.534408 -12.637552 44.906109 -29.880939 9.657387 -3.338938 24.048580 -5.611106 -4.082226 -0.421489 0.007765 -3.103288 20.508499 6.559794 2.872352 58.263912 2.936267 7.976710 29.175478 -16.089298 8.429377 
3.902100 52.868031 -87.590034 3.701754 -5.253917 2.712919 35.388523 2.612751 3.978011 -25.096949 -3.775189 0.817334 -15.133038 0.926374 -1.170365 -12.932102 0.975145 -2.039251 8.861669 -1.932660 3.351237 -69.578094 -10.695910 49.458729 -88.982841 4.958173 34.417946 8.524705 12.647240 -18.089245 -6.806992 -0.756156 2.905732 68.526634 30.401869 56.445751 87.160759 -2.901536 32.657169 -8.534408 -12.637552 45.911964 -28.409012 8.669012 -1.743167 24.907190 -5.571971 -4.200214 0.267250 -2.318251 -3.136952 17.967445 5.565738 0.768480 63.882404 2.280799 8.457346 29.099232 -16.871660 8.872270 
3.819402 52.577496 -86.051857 2.866809 -4.455763 2.485212 36.346863 1.331157 3.389817 -25.758997 -3.200159 0.820770 -13.454004 1.095973 -1.165037 -13.985666 0.867643 -1.992240 8.861669 -1.932660 3.351237 -69.430954 -11.656048 50.129913 -89.124947 5.084311 34.526215 8.524705 12.647240 -17.151745 -6.806992 -0.756156 2.905732 68.401649 28.960531 56.227966 86.808502 -2.340306 32.076923 -8.534408 -12.637552 47.005718 -26.483147 7.909487 0.047865 26.418653 -5.498078 -4.398185 -0.183909 -5.929026 -3.315654 16.109943 4.295879 -0.966649 69.402397 1.595936 8.848685 28.165154 -17.841827 9.296755 
3.707681 52.283840 -84.529274 2.113645 -3.785555 0.895884 37.264050 -0.629060 3.649563 -26.517630 -2.508432 1.126179 -11.773646 0.998377 -1.045156 -14.760967 1.216340 -1.877199 8.861669 -1.932660 3.351237 -69.172569 -12.775974 51.029789 -89.291649 5.230167 34.654121 8.524705 12.647240 -16.165417 -6.806992 -0.756156 2.905732 68.321671 27.417898 55.899902 86.554512 -1.859406 31.476503 -8.534408 -12.637552 47.728371 -24.659761 7.838793 2.473442 28.622221 -5.411345 -4.682127 -2.018712 -8.700303 -3.796341 13.983932 2.743935 -1.325895 74.874268 0.892520 9.190970 27.367979 -18.812258 9.694915 
3.704249 51.907490 -83.031654 2.042256 -2.997697 2.130454 37.390198 -0.803840 2.244350 -27.200739 -2.187049 0.800328 -10.229620 0.719474 -0.902180 -15.244972 1.676770 -1.741119 8.861669 -1.932660 3.351237 -68.960213 -13.949587 52.004036 -89.524773 5.426895 34.812843 8.524705 12.647240 -14.974011 -6.806992 -0.756156 2.905732 68.168556 25.596781 55.480888 86.389641 -1.508725 30.860710 -8.534408 -12.637552 47.786968 -24.110155 6.357106 2.343965 31.403963 -5.235638 -5.032370 -6.092395 -8.560105 -4.390086 11.120101 1.190645 -4.438706 80.097069 0.187394 9.438447 26.281487 -19.327045 9.765513 
3.669921 51.542675 -81.583664 1.649079 -2.329292 3.195975 38.221542 -1.020067 0.932455 -28.244690 -1.760280 0.491838 -8.490884 0.457759 -0.827261 -16.061045 2.066116 -1.746642 8.861669 -1.932660 3.351237 -68.779106 -15.217924 53.014343 -89.795059 5.645973 35.002693 8.524705 12.647240 -13.938854 -6.806992 -0.756156 2.905732 68.148186 23.844122 54.966648 86.279694 -1.308328 30.216969 -8.534408 -12.637552 47.288925 -23.551989 5.155565 1.876366 34.599026 -5.040628 -5.426602 -8.631532 -8.947909 -4.817384 8.558534 -0.459231 -7.155910 85.044075 -0.506552 9.605284 25.019096 -19.951967 9.822759 
3.692390 51.275547 -80.037048 1.092274 -1.962183 3.527647 38.920418 -1.052793 0.383209 -28.860588 -1.826420 0.373861 -7.084157 0.275221 -0.700367 -16.447592 2.502610 -1.628533 8.861669 -1.932660 3.351237 -68.423759 -16.878794 54.011753 -90.071861 5.858397 35.193401 8.524705 12.647240 -13.245496 -6.806992 -0.756156 2.905732 68.474594 22.094339 54.183079 86.205376 -1.263549 29.680866 -8.534408 -12.637552 46.468609 -22.807499 4.530162 1.640955 37.772800 -4.826062 -5.824829 -9.936857 -9.930357 -5.227513 6.256578 -1.971704 -8.838743 89.464874 -1.151673 9.686485 24.380476 -20.065340 9.717422 
3.770407 51.061466 -78.354691 1.346157 -1.626454 3.116910 39.018417 -1.430374 0.318559 -27.073347 -2.034309 0.391463 -10.696828 0.105955 -0.592062 -14.380815 2.970352 -1.468493 8.861669 -1.932660 3.351237 -68.578896 -21.855881 54.793686 -90.138992 5.909132 35.234097 8.524705 12.647240 -12.600965 -6.806992 -0.756156 2.905732 69.248314 23.053497 52.842449 86.120110 -1.339174 29.126881 -8.534408 -12.637552 45.550640 -22.379341 4.101166 1.830047 40.622082 -4.608241 -6.175748 -12.919251 -8.513840 -5.257946 3.128905 -3.567490 -9.471332 93.553978 -1.738720 9.772143 24.180338 -19.778488 9.559124 
3.745441 50.835846 -76.937279 1.002953 -0.712079 4.402238 39.944916 -1.602289 -1.268940 -27.775185 -1.603603 0.010778 -9.193016 -0.281953 -0.512832 -15.569951 3.358528 -1.479174 8.861669 -1.932660 3.351237 -68.738091 -24.365793 55.693092 -90.366432 6.079220 35.376087 8.524705 12.647240 -12.083387 -6.806992 -0.756156 2.905732 69.448547 21.381527 51.845558 86.027245 -1.485669 28.685507 -8.534408 -12.637552 44.105328 -21.091606 2.548261 0.894506 42.616982 -4.445770 -6.406681 -15.210506 -8.191644 -5.396424 0.410074 -5.957055 -11.834767 97.519012 -2.306399 9.789405 23.843937 -19.191864 9.191843 
3.705809 50.541569 -75.508942 0.895430 0.667916 4.747382 40.735554 -2.860064 -2.598902 -27.900517 -1.027903 -0.167313 -8.705299 -0.492670 -0.564185 -16.686176 3.322905 -1.670904 8.861669 -1.932660 3.351237 -68.988739 -27.535429 56.711590 -90.557098 6.212521 35.489426 8.524705 12.647240 -12.278699 -6.806992 -0.756156 2.905732 69.747162 20.005548 50.480724 85.930290 -1.643856 28.330961 -8.534408 -12.637552 42.425636 -19.532486 0.770859 0.512912 43.870056 -4.328930 -6.558900 -17.263533 -8.194863 -5.585404 -2.978078 -9.058750 -12.967834 101.418503 -2.869886 9.750211 23.131599 -18.181322 8.565422 
3.676474 50.322803 -74.043785 1.198314 2.074035 4.507346 41.403568 -4.573186 -3.492645 -27.206553 -0.650235 -0.170260 -10.619602 -0.477028 -0.631998 -16.414165 3.344874 -1.819601 8.861669 -1.932660 3.351237 -69.070366 -32.073055 57.869644 -90.661270 6.285425 35.560219 8.524705 12.647240 -12.688855 -6.806992 -0.756156 2.905732 70.512451 19.356533 48.476387 85.855957 -1.763253 28.106274 -8.534408 -12.637552 40.970566 -17.997648 -0.849722 0.477650 44.373493 -4.289670 -6.586910 -19.185858 -7.662293 -5.551507 -6.990865 -12.280584 -13.199779 104.921494 -3.369148 9.693017 22.267338 -16.580582 7.681882 
